PathFileType	4	(X/Y/Z)	C:/Users/opensim2020/Desktop/walking_exp_matlab/subject01_walking13_straight_03.trc	
DataRate	CameraRate	NumFrames	NumMarkers	Units	OrigDataRate	OrigDataStartFrame	OrigNumFrames	
100.00	100.00	4	42	mm	100.00	1647	128	
Frame#	Time	LFHD			RFHD			LBHD			RBHD			C7			T10			CLAV			STRN			RBAK			LSHO			LUPA			LELB			LFRM			LWRA			LWRB			LFIN			RSHO			RUPA			RELB			RFRM			RWRA			RWRB			RFIN			LASI			RASI			LPSI			RPSI			LTHI			LKNE			LTIB			LANK			LHEE			LTOE			RTHI			RKNE			RTIB			RANK			RHEE			RTOE			*39			*40			*41			
		X1	Y1	Z1	X2	Y2	Z2	X3	Y3	Z3	X4	Y4	Z4	X5	Y5	Z5	X6	Y6	Z6	X7	Y7	Z7	X8	Y8	Z8	X9	Y9	Z9	X10	Y10	Z10	X11	Y11	Z11	X12	Y12	Z12	X13	Y13	Z13	X14	Y14	Z14	X15	Y15	Z15	X16	Y16	Z16	X17	Y17	Z17	X18	Y18	Z18	X19	Y19	Z19	X20	Y20	Z20	X21	Y21	Z21	X22	Y22	Z22	X23	Y23	Z23	X24	Y24	Z24	X25	Y25	Z25	X26	Y26	Z26	X27	Y27	Z27	X28	Y28	Z28	X29	Y29	Z29	X30	Y30	Z30	X31	Y31	Z31	X32	Y32	Z32	X33	Y33	Z33	X34	Y34	Z34	X35	Y35	Z35	X36	Y36	Z36	X37	Y37	Z37	X38	Y38	Z38	X39	Y39	Z39	X40	Y40	Z40	X41	Y41	Z41	X42	Y42	Z42	

49	0.480	-1140.23254	-162.83160	1661.84814	-1027.80737	-150.93362	1668.57971	-1133.57190	-277.76068	1614.69788	-1013.61072	-268.15347	1620.22180	-1091.36731	-310.11023	1427.22498	-1068.61951	-364.41586	1136.85217	-1079.45630	-167.67784	1352.70325	-1081.38135	-134.66263	1195.58252	-1010.66162	-378.96405	1237.58875	-1241.73584	-218.26811	1387.72583	-1341.10156	-232.65363	1214.95850	-1368.56616	-212.59312	1064.83752	-1380.22168	-101.58308	1020.03534	-1343.78259	31.92348	1012.57233	-1372.86816	7.14182	966.95868	-1382.07703	88.37213	969.37585	-931.83398	-239.64337	1386.91138	-834.59149	-347.40964	1210.88477	-825.01996	-377.36911	1092.21667	-788.10602	-391.81512	975.09363	-796.76770	-354.15234	838.52472	-762.83038	-398.08200	854.76099	-749.98065	-381.28766	774.31219	-1180.31372	-203.01067	926.05109	-963.70667	-183.79124	930.14917	-1106.92761	-383.60828	939.92322	-963.22266	-367.69217	936.67267	-1222.64282	-294.23953	599.14227	-1204.71631	-333.01135	467.50479	-1203.71094	-424.86063	300.41806	-1145.03308	-496.92422	93.30267	-1090.19800	-543.84198	75.95176	-1156.20349	-359.76584	31.93911	-898.97260	-149.64345	605.04272	-934.76807	-82.71491	465.24023	-925.55780	-80.68460	291.15964	-973.88556	-29.56399	87.46680	-1028.56262	-60.18521	35.89915	-970.09741	113.23640	91.98543	-1050.90210	-163.04135	1701.62952	-3101.98511	1973.02185	1023.89166	-3140.70142	2012.57727	1022.14642 
50	0.490	-1138.88074	-150.72783	1660.82666	-1026.39966	-138.95108	1667.46790	-1132.42493	-265.73236	1613.94360	-1012.46765	-256.23053	1619.29578	-1090.32861	-298.65668	1426.31335	-1067.68701	-352.64822	1135.71521	-1078.62000	-156.18102	1351.72412	-1081.11243	-123.12032	1194.68921	-1009.71979	-367.20340	1236.31726	-1240.70703	-206.80328	1387.23792	-1340.53308	-220.03325	1214.88269	-1368.77649	-199.53882	1064.96509	-1380.17566	-88.06197	1021.37799	-1343.70447	45.39727	1015.45282	-1373.05737	21.21510	969.66968	-1382.18872	102.49001	973.14020	-930.80334	-228.06549	1385.73279	-834.33478	-336.72696	1209.98108	-824.74353	-367.03836	1091.48718	-787.96179	-382.44940	974.53784	-796.89001	-346.14420	837.56830	-762.73279	-390.08115	854.27277	-749.89667	-373.45547	773.56952	-1181.24609	-191.84837	925.57965	-964.75378	-170.84537	928.85461	-1106.01587	-371.85892	939.14355	-962.38647	-354.88361	935.54181	-1223.52148	-285.43463	599.11438	-1205.65247	-325.27744	467.43994	-1204.26294	-419.61478	301.93674	-1145.73608	-495.38431	96.07638	-1090.87952	-542.69904	79.76032	-1156.23853	-359.43866	31.77807	-898.13489	-140.72345	602.69855	-935.88605	-70.83266	464.55988	-926.50690	-63.66718	291.05045	-974.97888	-6.90080	88.26335	-1029.57922	-36.00622	36.14172	-972.06610	136.34270	97.14047	-1049.78833	-151.06381	1700.34656	-3101.97339	1973.18909	1023.62177	-3140.74194	2012.49622	1022.04077 
51	0.500	-1137.46936	-138.57205	1659.84082	-1024.91321	-126.83577	1666.34387	-1131.20569	-253.69191	1613.24451	-1011.10883	-244.32831	1618.45691	-1089.28503	-287.42654	1425.33203	-1066.75537	-340.75406	1134.44006	-1077.30603	-144.69629	1350.72412	-1080.61829	-111.38484	1193.82031	-1008.71069	-355.39322	1235.04004	-1239.63928	-195.39272	1386.75842	-1339.82190	-207.50073	1214.82373	-1368.94080	-186.73543	1065.13232	-1380.66187	-74.81100	1022.67468	-1343.57336	58.44067	1017.75751	-1373.14734	34.78949	971.83795	-1381.92126	115.96880	976.05212	-929.73981	-216.28993	1384.69800	-833.85571	-325.90750	1209.00500	-824.39795	-356.57684	1090.63672	-787.65656	-372.73129	973.80627	-796.72394	-337.15073	836.59338	-762.67981	-381.26346	853.41797	-749.71948	-365.09393	772.73792	-1182.02014	-180.31020	925.11237	-965.72864	-157.85825	927.56714	-1105.17407	-359.82306	938.30243	-961.72693	-341.96902	934.45996	-1224.28613	-275.97546	598.93744	-1206.23767	-316.51538	467.43463	-1204.98535	-413.86865	303.44687	-1146.85449	-493.61551	98.88932	-1091.81006	-541.23499	83.86977	-1156.65186	-359.30981	31.85617	-897.79163	-130.34506	601.06671	-937.13757	-59.01745	464.14322	-927.60492	-48.01154	290.64795	-976.15527	13.20527	88.93097	-1030.44006	-14.72389	35.87690	-974.32349	156.48482	100.48451	-1048.16260	-138.83406	1699.37866	-3102.02515	1973.08740	1023.50452	-3140.63452	2012.63342	1022.17950 
52	0.510	-1135.99683	-126.44610	1658.94348	-1023.48224	-114.79427	1665.13318	-1129.76697	-241.66318	1612.59033	-1009.87885	-232.43338	1617.61804	-1087.86316	-275.62747	1424.33472	-1065.75659	-328.69757	1133.24976	-1076.21509	-133.12476	1349.88257	-1080.05566	-99.66800	1193.08350	-1007.63953	-343.59018	1233.84814	-1238.44446	-183.94133	1386.36230	-1338.95630	-195.07857	1214.79407	-1368.74768	-174.19737	1065.42297	-1380.25659	-62.13658	1023.55688	-1343.37415	71.16314	1019.43420	-1372.91882	47.89756	973.21948	-1381.68982	129.06056	978.30127	-928.58069	-204.79608	1383.38892	-833.22095	-314.83356	1207.97180	-823.93311	-345.79153	1089.67529	-787.26678	-362.68115	972.89532	-796.37408	-327.65402	835.51953	-762.25104	-371.01926	852.62262	-749.64703	-355.98251	771.64661	-1182.56543	-168.53918	924.64899	-966.50568	-144.90825	926.30402	-1104.51001	-347.52182	937.42816	-961.11890	-329.10593	933.47125	-1225.06812	-265.89737	598.73401	-1207.04492	-307.16614	467.37482	-1205.78333	-407.56400	305.05804	-1147.84558	-491.64774	101.93260	-1092.88916	-539.54053	88.40993	-1156.79321	-359.07996	31.87009	-898.29956	-117.98772	599.93427	-937.99860	-47.07441	463.41568	-928.98114	-33.68098	290.06097	-977.49158	29.98218	88.97704	-1031.78552	2.50626	35.51188	-977.19861	173.92834	102.00867	-1046.77588	-126.73544	1698.19946	-3102.05811	1973.09729	1023.45874	-3140.68579	2012.62195	1022.19177 
